<?xml version="1.0" encoding="UTF-8"?>
<svg width="752pt" height="752pt" version="1.1" viewBox="0 0 752 752" xmlns="http://www.w3.org/2000/svg">
 <defs>
  <clipPath id="a">
   <path d="m139.21 139.21h473.58v473.58h-473.58z"/>
  </clipPath>
 </defs>
 <g clip-path="url(#a)">
  <path d="m376 139.21c-130.71 0-236.79 106.08-236.79 236.79s106.08 236.79 236.79 236.79 236.79-106.08 236.79-236.79c0.003907-130.71-106.08-236.79-236.79-236.79zm0 464.11c-125.5 0-227.32-101.82-227.32-227.32 0-125.5 101.82-227.32 227.32-227.32 125.5 0 227.32 101.82 227.32 227.32 0 125.5-101.82 227.32-227.32 227.32z" fill="#fff"/>
 </g>
 <path d="m248.61 460.3 131.66-85.246-131.66-85.246zm9.4688-152.96 104.66 67.723-104.66 67.723z" fill="#fff"/>
 <path d="m403.94 460.3h37.887v-170.49h-37.887zm9.4727-161.02h18.941v151.55h-18.941z" fill="#fff"/>
 <path d="m465.51 460.3h37.887v-170.49h-37.887zm9.4727-161.02h18.941v151.55h-18.941z" fill="#fff"/>
</svg>
